<svg width="171" height="201" viewBox="0 0 171 201" fill="none" xmlns="http://www.w3.org/2000/svg">
<path fill-rule="evenodd" clip-rule="evenodd" d="M13.0659 5.42878L5.42876 -9.81095e-05L-0.000115706 7.63706L7.63704 13.0659L13.0659 5.42878ZM168.9 200.544L170.606 200.929L170.826 199.953L169.12 199.569L168.9 200.544ZM7.9394 13.6245C8.00321 14.9849 8.08064 16.3421 8.17158 17.6959L9.16933 17.6289C9.07884 16.2818 9.00179 14.9313 8.9383 13.5776L7.9394 13.6245ZM163.782 199.391L165.488 199.775L165.708 198.8L164.002 198.415C162.68 198.118 161.363 197.807 160.052 197.484L159.813 198.454C161.13 198.779 162.453 199.092 163.782 199.391ZM8.88116 25.8045C9.1733 28.5108 9.51953 31.2023 9.91884 33.8778L10.9079 33.7302C10.5106 31.068 10.1661 28.39 9.87539 25.6972L8.88116 25.8045ZM144.181 193.92C146.746 194.779 149.337 195.588 151.951 196.346L152.23 195.386C149.628 194.631 147.051 193.826 144.498 192.972L144.181 193.92ZM11.284 41.9023C11.7947 44.5744 12.3588 47.2289 12.975 49.8646L13.9487 49.637C13.3356 47.0145 12.7744 44.3733 12.2662 41.7146L11.284 41.9023ZM128.969 188.131C131.458 189.196 133.974 190.213 136.516 191.181L136.872 190.246C134.342 189.284 131.839 188.272 129.363 187.212L128.969 188.131ZM14.9895 57.7514C15.7162 60.3716 16.4948 62.9713 17.3245 65.5493L18.2764 65.243C17.4509 62.6779 16.6761 60.0912 15.9532 57.4842L14.9895 57.7514ZM114.28 181.121C116.674 182.386 119.099 183.605 121.553 184.776L121.983 183.874C119.542 182.709 117.129 181.496 114.747 180.237L114.28 181.121ZM19.976 73.2455C20.9135 75.7964 21.9017 78.324 22.9394 80.827L23.8632 80.444C22.8307 77.9536 21.8474 75.4387 20.9146 72.9005L19.976 73.2455ZM100.211 172.936C102.495 174.393 104.812 175.805 107.162 177.172L107.665 176.308C105.327 174.948 103.021 173.542 100.749 172.092L100.211 172.936ZM26.2097 88.2813C27.3515 90.7463 28.5424 93.185 29.781 95.5962L30.6705 95.1392C29.438 92.7402 28.2532 90.3136 27.117 87.861L26.2097 88.2813ZM86.856 163.63C89.0151 165.269 91.2097 166.866 93.4386 168.419L94.0103 167.599C91.7925 166.053 89.6089 164.465 87.4607 162.834L86.856 163.63ZM33.6471 102.76C34.9852 105.123 36.3704 107.456 37.8014 109.76L38.6508 109.232C37.2269 106.94 35.8487 104.618 34.5173 102.267L33.6471 102.76ZM74.3025 153.27C76.3221 155.079 78.3795 156.849 80.4739 158.578L81.1104 157.807C79.0266 156.087 76.9793 154.326 74.9699 152.525L74.3025 153.27ZM42.2367 116.585C43.7617 118.831 45.3317 121.045 46.9455 123.225L47.7493 122.63C46.1436 120.461 44.5814 118.258 43.064 116.024L42.2367 116.585ZM62.6319 141.924C64.4986 143.892 66.4056 145.823 68.352 147.715L69.0491 146.998C67.1124 145.115 65.2149 143.194 63.3575 141.236L62.6319 141.924ZM51.9199 129.669C53.6214 131.783 55.3657 133.862 57.1515 135.905L57.9044 135.247C56.1275 133.214 54.3919 131.145 52.6989 129.042L51.9199 129.669Z" fill="#C29969"/>
</svg>
