<svg width="69" height="92" viewBox="0 0 69 92" fill="none" xmlns="http://www.w3.org/2000/svg">
<path fill-rule="evenodd" clip-rule="evenodd" d="M63.1382 3.26894L65.6107 -2.14218e-05L68.8797 2.4725L66.7172 5.33155C66.9018 6.5249 67.057 7.71611 67.1833 8.90445L66.1889 9.01013C66.054 7.74121 65.8858 6.46889 65.6835 5.1941L63.1382 3.26894ZM1.26085 90.9062L0.154978 91.0796L1.92417e-05 90.0917L1.10589 89.9182L1.26085 90.9062ZM4.57845 90.3858L3.47258 90.5592L3.31762 89.5713L4.4235 89.3979C5.79706 89.1824 7.15565 88.9303 8.49846 88.6427L8.70791 89.6205C7.34705 89.912 5.97028 90.1675 4.57845 90.3858ZM67.6016 17.2893C67.5834 20.1122 67.4046 22.908 67.0726 25.6663L66.0798 25.5468C66.4072 22.8258 66.5837 20.0678 66.6016 17.2829L67.6016 17.2893ZM24.6007 84.2921C22.0832 85.4671 19.4823 86.5082 16.8056 87.4051L16.4879 86.457C19.1285 85.5721 21.6943 84.545 24.1777 83.386L24.6007 84.2921ZM65.599 33.9282C64.9492 36.6636 64.1468 39.3486 63.2001 41.9718L62.2595 41.6323C63.1935 39.0443 63.985 36.3956 64.626 33.6971L65.599 33.9282ZM38.8876 75.5315C36.69 77.2485 34.3887 78.8475 31.992 80.3173L31.4692 79.4648C33.8336 78.0148 36.1038 76.4374 38.2719 74.7434L38.8876 75.5315ZM59.9109 49.6942C58.6692 52.2072 57.2886 54.6459 55.7772 56.9986L54.9359 56.4582C56.4271 54.1368 57.7893 51.7307 59.0143 49.2512L59.9109 49.6942ZM50.8532 63.7956C49.0885 65.9648 47.2015 68.0366 45.2005 69.9995L44.5002 69.2857C46.4745 67.349 48.3363 65.3048 50.0774 63.1645L50.8532 63.7956Z" fill="#31373F"/>
</svg>
