<svg width="205" height="66" viewBox="0 0 205 66" fill="none" xmlns="http://www.w3.org/2000/svg">
<path fill-rule="evenodd" clip-rule="evenodd" d="M7.40814 0L0 0.869823L0.869823 8.27797L8.27797 7.40814L7.40814 0ZM203.023 32.9239L204.912 31.4255L204.291 30.642L202.402 32.1404L203.023 32.9239ZM8.62068 7.57296C9.38765 8.72706 10.1696 9.86471 10.9662 10.9858L11.7814 10.4066C10.9909 9.29399 10.2148 8.16491 9.45354 7.01947L8.62068 7.57296ZM197.356 37.419L199.245 35.9206L198.624 35.1372L196.735 36.6356C195.657 37.4902 194.571 38.3247 193.475 39.1392L194.072 39.9416C195.176 39.121 196.271 38.2802 197.356 37.419ZM15.9569 17.5629C17.6994 19.7151 19.499 21.7979 21.3518 23.8106L22.0876 23.1333C20.249 21.1361 18.4633 19.0694 16.7341 16.9337L15.9569 17.5629ZM180.236 48.936C182.62 47.5933 184.974 46.1674 187.296 44.6579L186.75 43.8195C184.447 45.3175 182.11 46.7324 179.745 48.0648L180.236 48.936ZM27.1393 29.7073C29.1401 31.6194 31.1925 33.4575 33.2927 35.2211L33.9358 34.4553C31.852 32.7054 29.8155 30.8816 27.8302 28.9844L27.1393 29.7073ZM165.357 56.1054C167.899 55.0758 170.418 53.9607 172.911 52.7593L172.477 51.8584C170.004 53.0505 167.504 54.157 164.982 55.1785L165.357 56.1054ZM39.7854 40.3268C42.0104 41.9636 44.2804 43.5229 46.5911 45.0041L47.1307 44.1622C44.838 42.6925 42.5857 41.1453 40.378 39.5213L39.7854 40.3268ZM149.689 61.3077C152.344 60.6117 154.984 59.8289 157.606 58.9585L157.291 58.0095C154.69 58.8731 152.07 59.6498 149.435 60.3404L149.689 61.3077ZM53.6836 49.2361C56.0979 50.5738 58.5496 51.831 61.0342 53.007L61.462 52.1032C58.9966 50.9362 56.5639 49.6888 54.1683 48.3614L53.6836 49.2361ZM133.481 64.4636C136.207 64.1116 138.927 63.6722 141.637 63.1448L141.446 62.1632C138.757 62.6866 136.058 63.1226 133.353 63.4718L133.481 64.4636ZM68.6088 56.3011C71.1705 57.3195 73.7613 58.2551 76.3765 59.1071L76.6863 58.1563C74.0911 57.3108 71.5203 56.3825 68.9782 55.3718L68.6088 56.3011ZM117.005 65.532C119.756 65.5285 122.509 65.438 125.26 65.2597L125.195 64.2618C122.465 64.4387 119.733 64.5286 117.004 64.532L117.005 65.532ZM84.3069 61.4156C86.9751 62.1015 89.6635 62.7027 92.3677 63.2183L92.555 62.236C89.8715 61.7243 87.2036 61.1278 84.5559 60.4471L84.3069 61.4156ZM100.526 64.5084C103.257 64.8523 106 65.1101 108.75 65.2809L108.812 64.2828C106.083 64.1133 103.361 63.8575 100.651 63.5163L100.526 64.5084Z" fill="#31373F"/>
</svg>
