<svg width="32" height="68" viewBox="0 0 32 68" fill="none" xmlns="http://www.w3.org/2000/svg">
<path fill-rule="evenodd" clip-rule="evenodd" d="M0.954268 5.74117L6.47074e-05 1.75804L3.65336 -1.19622e-07L4.45107 3.32985C5.07852 3.64365 5.69651 3.96833 6.30488 4.30349L5.85132 5.1314C5.28204 4.81778 4.70407 4.51351 4.11756 4.21893L0.954268 5.74117ZM24.7933 66.7057L24.5919 67.0128L23.7042 66.4471L23.9056 66.14L24.7933 66.7057ZM25.3978 65.7843L25.1963 66.0915L24.3086 65.5257L24.51 65.2186C25.1611 64.2262 25.7575 63.2149 26.3004 62.1875L27.2287 62.6843C26.6734 63.7353 26.0634 64.7696 25.3978 65.7843ZM13.003 8.70006C15.1373 10.3527 17.1061 12.1485 18.8997 14.0606L18.1591 14.6659C16.4066 12.7976 14.4829 11.043 12.3974 9.42815L13.003 8.70006ZM31.3909 48.913C31.1432 51.3141 30.6712 53.6946 29.9653 56.0276L28.9749 55.6819C29.6646 53.4023 30.1258 51.0763 30.3679 48.7302L31.3909 48.913ZM23.816 20.2234C25.2794 22.3974 26.5484 24.665 27.6127 26.9972L26.6746 27.3095C25.6341 25.0297 24.3937 22.8132 22.9634 20.6884L23.816 20.2234ZM30.1862 34.1777C30.8298 36.6107 31.2583 39.0796 31.4615 41.5556L30.4368 41.5403C30.2382 39.1204 29.8194 36.7071 29.1903 34.3287L30.1862 34.1777Z" fill="#31373F"/>
</svg>
