<svg width="116" height="73" viewBox="0 0 116 73" fill="none" xmlns="http://www.w3.org/2000/svg">
<path fill-rule="evenodd" clip-rule="evenodd" d="M109.433 71.4352L114.075 72.8555L115.495 68.2134L110.853 66.7932L109.433 71.4352ZM0.901567 0.761663L6.26475e-05 0.851647L0.0993922 1.8467L1.0009 1.75672L0.901567 0.761663ZM110.838 66.4818C110.329 65.1622 109.796 63.8577 109.238 62.5689L108.32 62.966C108.873 64.2425 109.401 65.5345 109.905 66.8415L110.838 66.4818ZM3.60605 0.491692L2.70456 0.581685L2.80389 1.57674L3.70538 1.48675C5.09929 1.3476 6.49079 1.23715 7.87923 1.15499L7.82015 0.156727C6.41829 0.239691 5.01336 0.351208 3.60605 0.491692ZM105.57 54.9538C104.237 52.4535 102.81 50.0219 101.294 47.6625L100.453 48.2031C101.954 50.5397 103.368 52.9478 104.687 55.424L105.57 54.9538ZM24.7071 0.53133C21.9176 0.240977 19.1038 0.0626948 16.2714 3.12073e-05L16.2493 0.999788C19.0544 1.06185 21.8411 1.23841 24.6036 1.52596L24.7071 0.53133ZM96.4378 40.7444C94.7203 38.4987 92.9169 36.3312 91.0335 34.2457L90.2913 34.916C92.1566 36.9813 93.9426 39.1278 95.6435 41.3519L96.4378 40.7444ZM41.3081 3.64496C38.5977 2.90342 35.8501 2.27019 33.0713 1.74897L32.8869 2.73184C35.6389 3.24801 38.36 3.87513 41.0442 4.60951L41.3081 3.64496ZM85.1177 28.209C83.0617 26.2752 80.9306 24.4287 78.7306 22.6733L78.1069 23.455C80.2858 25.1935 82.3964 27.0222 84.4325 28.9374L85.1177 28.209ZM57.183 9.41305C54.6245 8.24009 52.0158 7.16972 49.363 6.20575L49.0215 7.14562C51.6487 8.1003 54.2324 9.16038 56.7662 10.3221L57.183 9.41305ZM71.9152 17.6744C69.5767 16.101 67.1752 14.6231 64.7168 13.2446L64.2277 14.1168C66.6624 15.4821 69.0409 16.9458 71.3569 18.5041L71.9152 17.6744Z" fill="#31373F"/>
</svg>
